<svg width="678" height="678" viewBox="0 0 678 678" fill="none" xmlns="http://www.w3.org/2000/svg">
<circle cx="339" cy="339" r="339" fill="#FF9000"/>
<path d="M108.406 466V211.455H218.278C237.17 211.455 253.701 215.183 267.87 222.641C282.039 230.098 293.059 240.58 300.931 254.086C308.803 267.592 312.739 283.377 312.739 301.44C312.739 319.67 308.679 335.454 300.558 348.795C292.521 362.135 281.21 372.41 266.627 379.619C252.127 386.827 235.182 390.432 215.793 390.432H150.168V336.739H201.872C209.992 336.739 216.911 335.33 222.629 332.513C228.429 329.613 232.862 325.511 235.928 320.208C239.076 314.905 240.651 308.649 240.651 301.44C240.651 294.149 239.076 287.934 235.928 282.797C232.862 277.577 228.429 273.599 222.629 270.865C216.911 268.048 209.992 266.639 201.872 266.639H177.511V466H108.406ZM338.094 466V211.455H407.199V310.886H498.676V211.455H567.781V466H498.676V366.568H407.199V466H338.094Z" fill="white"/>
</svg>

